mtllib out.mtl
g default
v -0.006209 0.5 0.103503
v -0.006209 1.03717 0.103503
v -0.006209 1.03717 -0.896497
v -0.006209 0.037165 -0.896497
v -0.006209 0.037165 -0.5
v -0.006209 0.5 -0.5
v 0.993791 0.037165 0.103503
v 0.993791 0.037165 -0.896497
v 0.993791 1.03717 -0.896497
v 0.993791 1.03717 0.103503
v 0.5 0.037165 0.103503
v 0.5 0.037165 -0.5
v 0.5 0.5 0.103503
v -0.5 -0.5 -0.5
v -0.5 -0.5 0.5
v -0.5 0.5 0.5
v -0.5 0.5 -0.5
v 0.5 0.5 0.5
v 0.5 -0.5 0.5
v 0.5 -0.5 -0.5
vt 0.375 0
vt 0.625 0
vt 0.375 0.25
vt 0.625 0.25
vt 0.375 0.5
vt 0.375 0.75
vt 0.625 0.75
vt 0.375 1
vt 0.625 1
vt 0.875 0
vt 0.125 0
vt 0.125 0.25
vt 0.625 0
vt 0.375 0.25
vt 0.625 0.25
vt 0.375 0.5
vt 0.625 0.5
vt 0.375 0.75
vt 0.625 0.75
vt 0.625 1
vt 0.875 0
vt 0.875 0.25
vt 0.125 0
vt 0.125 0.25
vt 0.224124 0.115709
vt 0.224124 0
vt 0.375 0.115709
vt 0.501552 0.849124
vt 0.501552 1
vt 0.375 0.849124
vt 0.501552 0.115709
vt 0.375 0.115709
vt 0.501552 0
vt 0.724124 0.25
vt 0.724124 0.134291
vt 0.875 0.134291
vt 0.498448 0.5
vt 0.625 0.615709
vt 0.498448 0.615709
vt 0.625 0.349124
vt 0.498448 0.5
vt 0.498448 0.349124
vn -1 0 -0
vn -1 -0 -0
vn -1 0 0
vn -1 -0 0
vn -1 0 0
vn -1 0 0
vn 1 0 0
vn 1 0 0
vn 1 0 0
vn 1 0 0
vn 0 -1 0
vn 0 -1 0
vn -0 -1 0
vn -0 -1 0
vn -0 -1 -0
vn 0 -1 -0
vn 0 0 -1
vn 0 0 -1
vn 0 0 -1
vn 0 0 -1
vn 0 1 0
vn 0 1 0
vn 0 1 0
vn 0 1 0
vn 0 0 1
vn 0 0 1
vn 0 0 1
vn 0 0 1
vn 0 0 1
vn 0 0 1
vn -1 0 0
vn -1 0 0
vn -1 0 0
vn -1 0 0
vn 1 0 0
vn 1 0 -0
vn 1 0 0
vn 1 0 -0
vn 1 0 -0
vn 1 0 0
vn 0 -1 0
vn 0 -1 0
vn 0 -1 0
vn 0 -1 0
vn 0 0 -1
vn 0 0 -1
vn 0 0 -1
vn 0 0 -1
vn 0 0 -1
vn 0 0 -1
vn 0 1 0
vn 0 1 0
vn 0 1 0
vn 0 1 0
vn 0 1 0
vn 0 1 0
vn 0 0 1
vn 0 0 1
vn 0 0 1
vn 0 0 1
s 1
g polySurface1
usemtl phong1SG
f 1/27/1 2/14/2 6/25/3
f 2/14/2 3/24/4 6/25/3
f 3/24/4 4/23/5 6/25/3
f 4/23/5 5/26/6 6/25/3
f 7/13/7 8/21/8 10/15/9
f 10/15/9 8/21/8 9/22/10
f 5/30/11 4/18/12 12/28/13
f 4/18/12 8/19/14 12/28/13
f 8/19/14 7/20/15 12/28/13
f 7/20/15 11/29/16 12/28/13
f 3/16/17 9/17/18 4/18/19
f 4/18/19 9/17/18 8/19/20
f 2/14/21 10/15/22 3/16/23
f 3/16/23 10/15/22 9/17/24
f 11/33/25 7/13/26 13/31/27
f 7/13/26 10/15/28 13/31/27
f 10/15/28 2/14/29 13/31/27
f 2/14/29 1/32/30 13/31/27
usemtl phong2SG
f 14/11/31 15/1/32 17/12/33
f 17/12/33 15/1/32 16/3/34
f 12/36/35 11/35/36 20/10/37
f 20/10/37 11/35/36 19/2/38
f 19/2/38 11/35/36 18/4/39
f 11/35/36 13/34/40 18/4/39
f 14/6/41 20/7/42 15/8/43
f 15/8/43 20/7/42 19/9/44
f 12/38/45 20/7/46 5/39/47
f 20/7/46 14/6/48 5/39/47
f 14/6/48 17/5/49 5/39/47
f 5/39/47 17/5/49 6/37/50
f 6/41/51 17/5/52 1/42/53
f 17/5/52 16/3/54 1/42/53
f 16/3/54 18/4/55 1/42/53
f 1/42/53 18/4/55 13/40/56
f 15/1/57 19/2/58 16/3/59
f 16/3/59 19/2/58 18/4/60
