<?xml version="1.0" encoding="UTF-8" standalone="no"?>
<!DOCTYPE svg PUBLIC "-//W3C//DTD SVG 1.1//EN"
 "http://www.w3.org/Graphics/SVG/1.1/DTD/svg11.dtd">
<!-- Generated by graphviz version 2.28.0 (20110727.0511)
 -->
<!-- Title: transition_table Pages: 1 -->
<svg width="382pt" height="308pt"
 viewBox="0.00 0.00 381.56 308.00" xmlns="http://www.w3.org/2000/svg" xmlns:xlink="http://www.w3.org/1999/xlink">
<g id="graph1" class="graph" transform="scale(1 1) rotate(0) translate(4 304)">
<title>transition_table</title>
<polygon fill="white" stroke="white" points="-4,5 -4,-304 378.557,-304 378.557,5 -4,5"/>
<!-- Fill -->
<g id="node1" class="node"><title>Fill</title>
<ellipse fill="none" stroke="black" cx="154.557" cy="-282" rx="27" ry="18"/>
<text text-anchor="middle" x="154.557" y="-278.3" font-family="Times,serif" font-size="14.00">Fill</text>
</g>
<!-- Return -->
<g id="node3" class="node"><title>Return</title>
<ellipse fill="none" stroke="black" cx="59.5569" cy="-194" rx="36.096" ry="18"/>
<text text-anchor="middle" x="59.5569" y="-190.3" font-family="Times,serif" font-size="14.00">Return</text>
</g>
<!-- Fill&#45;&gt;Return -->
<g id="edge2" class="edge"><title>Fill&#45;&gt;Return</title>
<path fill="none" stroke="black" d="M127.342,-281.374C99.9321,-280.106 58.8773,-273.356 38.5569,-246 32.6473,-238.044 34.9487,-228.185 39.7878,-219.262"/>
<polygon fill="black" stroke="black" points="42.7932,-221.06 45.2626,-210.757 36.9071,-217.271 42.7932,-221.06"/>
<text text-anchor="middle" x="53.5569" y="-234.3" font-family="Times,serif" font-size="14.00">filled</text>
</g>
<!-- Look -->
<g id="node5" class="node"><title>Look</title>
<ellipse fill="none" stroke="black" cx="154.557" cy="-18" rx="31.2965" ry="18"/>
<text text-anchor="middle" x="154.557" y="-14.3" font-family="Times,serif" font-size="14.00">Look</text>
</g>
<!-- Fill&#45;&gt;Look -->
<g id="edge4" class="edge"><title>Fill&#45;&gt;Look</title>
<path fill="none" stroke="black" d="M176.831,-271.799C187.584,-266.085 199.453,-257.592 205.557,-246 225.436,-208.247 225.436,-91.7527 205.557,-54 201.457,-46.2144 194.757,-39.8271 187.542,-34.7406"/>
<polygon fill="black" stroke="black" points="189.291,-31.7065 178.959,-29.3612 185.573,-37.6377 189.291,-31.7065"/>
<text text-anchor="middle" x="276.557" y="-146.3" font-family="Times,serif" font-size="14.00">none[fill_timedout]</text>
</g>
<!-- Return&#45;&gt;Fill -->
<g id="edge8" class="edge"><title>Return&#45;&gt;Fill</title>
<path fill="none" stroke="black" d="M67.2587,-211.665C72.8543,-222.437 81.2408,-236.219 91.5569,-246 100.616,-254.589 112.183,-261.8 122.928,-267.401"/>
<polygon fill="black" stroke="black" points="121.556,-270.627 132.074,-271.904 124.648,-264.347 121.556,-270.627"/>
<text text-anchor="middle" x="148.557" y="-234.3" font-family="Times,serif" font-size="14.00">none[fill_timedout]</text>
</g>
<!-- Swing -->
<g id="node7" class="node"><title>Swing</title>
<ellipse fill="none" stroke="black" cx="54.5569" cy="-106" rx="35.6194" ry="18"/>
<text text-anchor="middle" x="54.5569" y="-102.3" font-family="Times,serif" font-size="14.00">Swing</text>
</g>
<!-- Return&#45;&gt;Swing -->
<g id="edge6" class="edge"><title>Return&#45;&gt;Swing</title>
<path fill="none" stroke="black" d="M31.1702,-182.711C20.1945,-177.178 8.79345,-169.148 2.55693,-158 -4.85632,-144.749 6.12554,-132.708 19.8769,-123.658"/>
<polygon fill="black" stroke="black" points="21.8589,-126.551 28.6572,-118.425 18.2752,-120.538 21.8589,-126.551"/>
<text text-anchor="middle" x="26.0569" y="-146.3" font-family="Times,serif" font-size="14.00">atDump</text>
</g>
<!-- Look&#45;&gt;Fill -->
<g id="edge14" class="edge"><title>Look&#45;&gt;Fill</title>
<path fill="none" stroke="black" d="M182.462,-26.0944C241.084,-42.5387 368.903,-87.3334 334.557,-158 305.469,-217.847 231.443,-253.503 187.918,-269.97"/>
<polygon fill="black" stroke="black" points="186.529,-266.751 178.338,-273.471 188.932,-273.326 186.529,-266.751"/>
<text text-anchor="middle" x="356.057" y="-146.3" font-family="Times,serif" font-size="14.00">filling</text>
</g>
<!-- Look&#45;&gt;Swing -->
<g id="edge16" class="edge"><title>Look&#45;&gt;Swing</title>
<path fill="none" stroke="black" d="M130.234,-29.408C117.825,-35.4524 102.981,-43.8759 91.5569,-54 83.2064,-61.4001 75.6364,-70.9997 69.5505,-79.8712"/>
<polygon fill="black" stroke="black" points="66.5236,-78.1052 63.9855,-88.3915 72.3843,-81.9331 66.5236,-78.1052"/>
<text text-anchor="middle" x="148.557" y="-58.3" font-family="Times,serif" font-size="14.00">none[fill_timedout]</text>
</g>
<!-- Swing&#45;&gt;Return -->
<g id="edge12" class="edge"><title>Swing&#45;&gt;Return</title>
<path fill="none" stroke="black" d="M55.5502,-124.084C56.2349,-135.861 57.1601,-151.774 57.9489,-165.342"/>
<polygon fill="black" stroke="black" points="54.4705,-165.817 58.5451,-175.597 61.4587,-165.41 54.4705,-165.817"/>
<text text-anchor="middle" x="114.557" y="-146.3" font-family="Times,serif" font-size="14.00">none[fill_timedout]</text>
</g>
<!-- Swing&#45;&gt;Look -->
<g id="edge10" class="edge"><title>Swing&#45;&gt;Look</title>
<path fill="none" stroke="black" d="M42.6253,-89.0347C36.1668,-78.297 30.9208,-64.2802 38.5569,-54 55.6655,-30.9675 87.472,-22.5427 113.458,-19.6981"/>
<polygon fill="black" stroke="black" points="113.787,-23.1828 123.451,-18.8391 113.188,-16.2085 113.787,-23.1828"/>
<text text-anchor="middle" x="53.5569" y="-58.3" font-family="Times,serif" font-size="14.00">atFill</text>
</g>
</g>
</svg>
