<?xml version="1.0" encoding="UTF-8" standalone="no"?>
<!DOCTYPE svg PUBLIC "-//W3C//DTD SVG 1.1//EN"
 "http://www.w3.org/Graphics/SVG/1.1/DTD/svg11.dtd">
<!-- Generated by graphviz version 2.28.0 (20110727.0511)
 -->
<!-- Title: transition_table Pages: 1 -->
<svg width="279pt" height="260pt"
 viewBox="0.00 0.00 278.59 260.00" xmlns="http://www.w3.org/2000/svg" xmlns:xlink="http://www.w3.org/1999/xlink">
<g id="graph1" class="graph" transform="scale(1 1) rotate(0) translate(4 256)">
<title>transition_table</title>
<polygon fill="white" stroke="white" points="-4,5 -4,-256 275.586,-256 275.586,5 -4,5"/>
<!-- Fill -->
<g id="node1" class="node"><title>Fill</title>
<ellipse fill="none" stroke="black" cx="216.43" cy="-234" rx="27" ry="18"/>
<text text-anchor="middle" x="216.43" y="-230.3" font-family="Times,serif" font-size="14.00">Fill</text>
</g>
<!-- Return -->
<g id="node3" class="node"><title>Return</title>
<ellipse fill="none" stroke="black" cx="54.4303" cy="-162" rx="36.096" ry="18"/>
<text text-anchor="middle" x="54.4303" y="-158.3" font-family="Times,serif" font-size="14.00">Return</text>
</g>
<!-- Fill&#45;&gt;Return -->
<g id="edge2" class="edge"><title>Fill&#45;&gt;Return</title>
<path fill="none" stroke="black" d="M189.742,-230.631C144.252,-223.519 84.2404,-201.804 54.5857,-184.877"/>
<polygon fill="black" stroke="black" points="56.4186,-181.895 46.0812,-179.574 52.7148,-187.835 56.4186,-181.895"/>
</g>
<!-- Look -->
<g id="node5" class="node"><title>Look</title>
<ellipse fill="none" stroke="black" cx="216.43" cy="-18" rx="31.2965" ry="18"/>
<text text-anchor="middle" x="216.43" y="-14.3" font-family="Times,serif" font-size="14.00">Look</text>
</g>
<!-- Fill&#45;&gt;Look -->
<g id="edge4" class="edge"><title>Fill&#45;&gt;Look</title>
<path fill="none" stroke="black" d="M193.441,-224.346C155.165,-192.39 152.321,-80.6264 184.911,-36.8131"/>
<polygon fill="black" stroke="black" points="187.625,-39.0275 191.653,-29.2282 182.394,-34.3767 187.625,-39.0275"/>
</g>
<!-- Return&#45;&gt;Fill -->
<g id="edge8" class="edge"><title>Return&#45;&gt;Fill</title>
<path fill="none" stroke="black" d="M89.3435,-166.782C133.8,-175.071 188.849,-195.373 216.634,-211.329"/>
<polygon fill="black" stroke="black" points="214.937,-214.396 225.263,-216.765 218.668,-208.473 214.937,-214.396"/>
</g>
<!-- Swing -->
<g id="node7" class="node"><title>Swing</title>
<ellipse fill="none" stroke="black" cx="54.4303" cy="-90" rx="35.6194" ry="18"/>
<text text-anchor="middle" x="54.4303" y="-86.3" font-family="Times,serif" font-size="14.00">Swing</text>
</g>
<!-- Return&#45;&gt;Swing -->
<g id="edge6" class="edge"><title>Return&#45;&gt;Swing</title>
<path fill="none" stroke="black" d="M21.2612,-154.415C-3.36306,-142.577 -6.15606,-117.556 12.8822,-102.727"/>
<polygon fill="black" stroke="black" points="14.8918,-105.602 21.6178,-97.4156 11.255,-99.6205 14.8918,-105.602"/>
</g>
<!-- Look&#45;&gt;Fill -->
<g id="edge14" class="edge"><title>Look&#45;&gt;Fill</title>
<path fill="none" stroke="black" d="M241.207,-29.2282C278.286,-63.5975 280.08,-175.119 246.588,-216.952"/>
<polygon fill="black" stroke="black" points="243.867,-214.73 239.419,-224.346 248.893,-219.603 243.867,-214.73"/>
</g>
<!-- Look&#45;&gt;Swing -->
<g id="edge16" class="edge"><title>Look&#45;&gt;Swing</title>
<path fill="none" stroke="black" d="M225.212,-35.2719C203.34,-50.6829 146.703,-72.9604 98.788,-83.3136"/>
<polygon fill="black" stroke="black" points="97.8277,-79.9364 88.7115,-85.3351 99.2046,-86.7997 97.8277,-79.9364"/>
</g>
<!-- Swing&#45;&gt;Return -->
<g id="edge12" class="edge"><title>Swing&#45;&gt;Return</title>
<path fill="none" stroke="black" d="M87.2427,-97.4156C112.077,-109.126 115.08,-134.132 96.2514,-149.058"/>
<polygon fill="black" stroke="black" points="94.2595,-146.175 87.5994,-154.415 97.9442,-152.127 94.2595,-146.175"/>
</g>
<!-- Swing&#45;&gt;Look -->
<g id="edge10" class="edge"><title>Swing&#45;&gt;Look</title>
<path fill="none" stroke="black" d="M46.1026,-72.411C68.9432,-56.5628 127.799,-33.6742 176.223,-23.8153"/>
<polygon fill="black" stroke="black" points="176.884,-27.2525 186.067,-21.9697 175.594,-20.3723 176.884,-27.2525"/>
</g>
</g>
</svg>
